<svg width="37" height="37" viewBox="0 0 37 37" fill="none" xmlns="http://www.w3.org/2000/svg">
<rect x="0.5" y="0.5" width="36" height="36" rx="10.5" fill="white"/>
<rect x="0.5" y="0.5" width="36" height="36" rx="10.5" stroke="#4E5058"/>
<path d="M15.375 13.5C15.375 13.1685 15.5067 12.8505 15.7411 12.6161C15.9755 12.3817 16.2935 12.25 16.625 12.25H20.375C20.7065 12.25 21.0245 12.3817 21.2589 12.6161C21.4933 12.8505 21.625 13.1685 21.625 13.5V14.75H24.125C24.2908 14.75 24.4497 14.8158 24.5669 14.9331C24.6842 15.0503 24.75 15.2092 24.75 15.375C24.75 15.5408 24.6842 15.6997 24.5669 15.8169C24.4497 15.9342 24.2908 16 24.125 16H23.4569L22.915 23.5887C22.8926 23.9041 22.7514 24.1993 22.5201 24.4147C22.2887 24.6302 21.9843 24.75 21.6681 24.75H15.3312C15.0151 24.75 14.7107 24.6302 14.4793 24.4147C14.2479 24.1993 14.1068 23.9041 14.0844 23.5887L13.5438 16H12.875C12.7092 16 12.5503 15.9342 12.4331 15.8169C12.3158 15.6997 12.25 15.5408 12.25 15.375C12.25 15.2092 12.3158 15.0503 12.4331 14.9331C12.5503 14.8158 12.7092 14.75 12.875 14.75H15.375V13.5ZM16.625 14.75H20.375V13.5H16.625V14.75ZM14.7962 16L15.3319 23.5H21.6687L22.2044 16H14.7962ZM17.25 17.25C17.4158 17.25 17.5747 17.3158 17.6919 17.4331C17.8092 17.5503 17.875 17.7092 17.875 17.875V21.625C17.875 21.7908 17.8092 21.9497 17.6919 22.0669C17.5747 22.1842 17.4158 22.25 17.25 22.25C17.0842 22.25 16.9253 22.1842 16.8081 22.0669C16.6908 21.9497 16.625 21.7908 16.625 21.625V17.875C16.625 17.7092 16.6908 17.5503 16.8081 17.4331C16.9253 17.3158 17.0842 17.25 17.25 17.25ZM19.75 17.25C19.9158 17.25 20.0747 17.3158 20.1919 17.4331C20.3092 17.5503 20.375 17.7092 20.375 17.875V21.625C20.375 21.7908 20.3092 21.9497 20.1919 22.0669C20.0747 22.1842 19.9158 22.25 19.75 22.25C19.5842 22.25 19.4253 22.1842 19.3081 22.0669C19.1908 21.9497 19.125 21.7908 19.125 21.625V17.875C19.125 17.7092 19.1908 17.5503 19.3081 17.4331C19.4253 17.3158 19.5842 17.25 19.75 17.25Z" fill="#BC4A4A"/>
</svg>
