<svg width="37" height="37" viewBox="0 0 37 37" fill="none" xmlns="http://www.w3.org/2000/svg">
<rect x="0.5" y="0.5" width="36" height="36" rx="10.5" fill="white"/>
<rect x="0.5" y="0.5" width="36" height="36" rx="10.5" stroke="#4E5058"/>
<path d="M21.1831 12.4331C21.3003 12.316 21.4593 12.2501 21.625 12.2501C21.7907 12.2501 21.9497 12.316 22.0669 12.4331L24.5669 14.9331C24.684 15.0503 24.7499 15.2093 24.7499 15.375C24.7499 15.5407 24.684 15.6997 24.5669 15.8169L16.4419 23.9419C16.3247 24.0591 16.1657 24.125 16 24.125H13.5C13.3342 24.125 13.1753 24.0592 13.0581 23.9419C12.9408 23.8247 12.875 23.6658 12.875 23.5V21C12.875 20.8343 12.9409 20.6753 13.0581 20.5581L19.3081 14.3081L21.1831 12.4331ZM19.75 15.6338L14.125 21.2588V22.875H15.7413L21.3663 17.25L19.75 15.6338ZM22.25 16.3663L23.2413 15.375L21.625 13.7588L20.6337 14.75L22.25 16.3663Z" fill="black"/>
</svg>
