<svg width="37" height="37" viewBox="0 0 37 37" fill="none" xmlns="http://www.w3.org/2000/svg">
<rect x="0.5" y="0.5" width="36" height="36" rx="10.5" fill="white"/>
<rect x="0.5" y="0.5" width="36" height="36" rx="10.5" stroke="#4E5058"/>
<path d="M18.5 12.875C21.87 12.875 24.6738 15.3 25.2619 18.5C24.6744 21.7 21.87 24.125 18.5 24.125C15.13 24.125 12.3263 21.7 11.7388 18.5C12.3263 15.3 15.13 12.875 18.5 12.875ZM18.5 22.875C19.7748 22.8749 21.0118 22.442 22.0084 21.6472C23.0051 20.8524 23.7024 19.7428 23.9863 18.5C23.7017 17.258 23.0041 16.1493 22.0075 15.3553C21.011 14.5613 19.7745 14.129 18.5003 14.129C17.2262 14.129 15.9897 14.5613 14.9931 15.3553C13.9966 16.1493 13.299 17.258 13.0144 18.5C13.2982 19.7427 13.9954 20.8522 14.992 21.647C15.9885 22.4418 17.2254 22.8747 18.5 22.875ZM18.5 21.3125C17.7541 21.3125 17.0387 21.0162 16.5113 20.4887C15.9838 19.9613 15.6875 19.2459 15.6875 18.5C15.6875 17.7541 15.9838 17.0387 16.5113 16.5113C17.0387 15.9838 17.7541 15.6875 18.5 15.6875C19.2459 15.6875 19.9613 15.9838 20.4888 16.5113C21.0162 17.0387 21.3125 17.7541 21.3125 18.5C21.3125 19.2459 21.0162 19.9613 20.4888 20.4887C19.9613 21.0162 19.2459 21.3125 18.5 21.3125ZM18.5 20.0625C18.9144 20.0625 19.3118 19.8979 19.6049 19.6049C19.8979 19.3118 20.0625 18.9144 20.0625 18.5C20.0625 18.0856 19.8979 17.6882 19.6049 17.3951C19.3118 17.1021 18.9144 16.9375 18.5 16.9375C18.0856 16.9375 17.6882 17.1021 17.3952 17.3951C17.1021 17.6882 16.9375 18.0856 16.9375 18.5C16.9375 18.9144 17.1021 19.3118 17.3952 19.6049C17.6882 19.8979 18.0856 20.0625 18.5 20.0625Z" fill="black"/>
</svg>
